<!-- favicon.svg -->
<svg xmlns="http://www.w3.org/2000/svg" width="256" height="256" viewBox="0 0 64 64" role="img" aria-label="HIFi Studio & Mobile">
  <rect x="2" y="2" width="60" height="60" rx="12" fill="none" stroke="#0F172A" stroke-width="4"/>
  <rect x="10" y="18" width="44" height="28" rx="6" fill="#0B1220" stroke="#FFFFFF" stroke-width="2"/>
  <rect x="18" y="14" width="12" height="6" rx="3" fill="#0B1220" stroke="#FFFFFF" stroke-width="2"/>
  <circle cx="32" cy="32" r="10.5" fill="none" stroke="#FFFFFF" stroke-width="2.5"/>
  <g fill="#FFFFFF" stroke="none" transform="translate(22,18)">
    <path d="M10 4l4.8 5.2-3.2 1.1z"/>
    <path d="M19.5 10.6l-1.7 6.3-3.1-1.3z"/>
    <path d="M17.8 20l-6.2 1.9.1-3.4z"/>
    <path d="M8.4 22l-5.7-3.4 2.9-1.6z"/>
    <path d="M0.7 15.9l1.7-6.3 3.0 1.4z"/>
    <path d="M2.4 6.1l6.2-1.9-.1 3.3z"/>
  </g>
  <rect x="48.5" y="22" width="2.8" height="20" rx="1.2" fill="#FFFFFF" opacity="0.9"/>
</svg>
