<!-- favicon-hifistudio-dark.svg -->
<svg xmlns="http://www.w3.org/2000/svg" width="256" height="256" viewBox="0 0 64 64" role="img" aria-label="HIFi Studio & Mobile favicon">
  <rect x="2" y="2" width="60" height="60" rx="12" fill="#0F172A"/>
  <!-- camera body -->
  <rect x="10" y="18" width="44" height="28" rx="6" fill="#0B1220" stroke="#FFFFFF" stroke-width="2.5"/>
  <!-- top bump -->
  <rect x="18" y="14" width="12" height="6" rx="3" fill="#0B1220" stroke="#FFFFFF" stroke-width="2.5"/>
  <!-- lens ring -->
  <circle cx="32" cy="32" r="10.5" fill="none" stroke="#FFFFFF" stroke-width="2.5"/>
  <!-- 6-blade aperture -->
  <g fill="#FFFFFF">
    <path d="M32 22.5l4.8 5.2-3.2 1.1z"/>
    <path d="M41.5 28.2l-1.7 6.3-3.1-1.3z"/>
    <path d="M39.8 38l-6.2 1.9.1-3.4z"/>
    <path d="M30.4 40l-5.7-3.4 2.9-1.6z"/>
    <path d="M22.7 33.9l1.7-6.3 3.0 1.4z"/>
    <path d="M24.4 24.1l6.2-1.9-.1 3.3z"/>
  </g>
  <!-- subtle phone cue (mobile) -->
  <rect x="48.5" y="22" width="2.8" height="20" rx="1.2" fill="#FFFFFF" opacity="0.9"/>
</svg>
